<svg version="1.1" id="Layer_1" xmlns="http://www.w3.org/2000/svg" xmlns:xlink="http://www.w3.org/1999/xlink" x="0px" y="0px"
	 width="100%" viewBox="0 0 500 500" enable-background="new 0 0 500 500" xml:space="preserve">

<path fill="#7A446C" opacity="1.000000" stroke="none" 
	d="
M190.236511,200.384521 
	C196.265640,202.818405 197.734741,207.677795 197.909241,213.063889 
	C198.227356,222.882843 195.068710,231.717422 189.711624,239.837952 
	C188.367249,241.875854 186.998047,243.897400 185.384476,246.308670 
	C194.927597,248.384186 198.798080,254.887375 200.405563,263.446869 
	C203.353073,264.595978 205.032806,263.766541 205.670792,260.538361 
	C206.249695,257.609161 206.668991,254.520233 207.967468,251.903015 
	C208.963043,249.896347 210.935547,247.771729 212.967743,246.998627 
	C218.370453,244.943298 220.370377,246.942032 219.105331,252.559296 
	C218.188690,256.629639 217.170563,260.677124 216.197693,264.734802 
	C216.575104,264.904846 216.952530,265.074921 217.329956,265.244965 
	C218.200943,263.802307 219.075439,262.361755 219.942307,260.916595 
	C223.325577,255.276489 227.122101,249.999695 233.496521,247.422684 
	C240.793243,244.472809 244.851654,247.592621 244.009308,255.413635 
	C243.760315,257.725494 243.092804,260.005646 242.997635,262.316040 
	C242.933350,263.876831 243.535141,265.465088 243.838989,267.041046 
	C244.281067,267.064850 244.723145,267.088654 245.165222,267.112457 
	C245.841980,265.711182 246.492340,264.296417 247.199844,262.910858 
	C251.396790,254.691483 257.284149,248.477310 266.737335,246.523071 
	C267.388245,246.388504 268.127869,246.060303 268.694519,246.239258 
	C273.234833,247.673080 277.826263,249.014145 282.187469,250.884079 
	C282.998932,251.232010 283.265717,253.886230 283.065552,255.379807 
	C282.160156,262.136261 280.821899,268.837952 280.042023,275.605743 
	C279.830719,277.439423 281.026917,279.435303 281.577087,281.356720 
	C283.464752,280.525574 285.653473,280.053436 287.171051,278.780945 
	C289.575653,276.764679 291.441162,274.118835 293.722839,271.935944 
	C294.584473,271.111603 296.414307,270.101990 297.016266,270.468536 
	C298.063660,271.106293 298.959717,272.690369 299.118347,273.976471 
	C300.126556,282.151825 285.721466,294.597504 277.938782,291.940521 
	C274.925690,290.911865 272.557129,287.995331 269.609283,285.718170 
	C266.066010,290.031921 261.347229,293.764160 254.343369,292.101288 
	C247.150146,290.393463 245.225800,284.564056 243.990921,278.477905 
	C232.274765,277.473236 232.181976,277.356415 230.655060,260.893585 
	C228.681778,262.787140 226.770432,263.870789 225.999161,265.495575 
	C223.159653,271.477448 220.666504,277.625580 218.118225,283.742462 
	C217.546478,285.114899 217.692505,287.003510 216.781754,287.970215 
	C215.120087,289.733978 212.861984,292.198364 210.952072,292.114258 
	C209.002472,292.028320 206.119171,289.551575 205.508392,287.552185 
	C204.221710,283.340149 204.153351,278.756012 203.588287,274.349915 
	C200.269226,273.403870 199.417389,275.535614 198.403000,278.109985 
	C194.169098,288.854950 185.670273,294.299347 175.978897,291.878693 
	C172.161530,290.925201 168.793625,288.172272 164.884247,286.056488 
	C151.314301,295.818726 145.834396,295.310089 140.135590,283.180267 
	C129.207550,294.483978 127.634453,294.886749 120.842499,288.332947 
	C117.206230,289.634796 113.766342,291.359528 110.128502,292.068542 
	C101.940948,293.664307 95.232315,290.858734 90.937416,283.625153 
	C87.548103,277.916809 84.814919,271.822815 81.584076,266.014832 
	C79.808662,262.823273 77.783775,259.632050 73.371658,259.736359 
	C71.806358,266.078735 70.823059,272.554565 68.597618,278.570892 
	C63.688057,291.843475 48.087318,297.040222 35.975002,289.748901 
	C31.063652,286.792389 27.139746,282.717743 27.773172,276.518616 
	C28.000063,274.298096 30.311506,272.290588 31.671541,270.185852 
	C33.407944,271.448578 35.166107,272.683167 36.863407,273.996429 
	C37.227127,274.277832 37.355034,274.853668 37.617615,275.277740 
	C40.095901,279.280182 42.463337,283.746704 48.184841,282.897339 
	C54.142433,282.012939 55.902523,277.091370 57.077713,272.110046 
	C58.025249,268.093597 58.547832,263.976929 59.258953,259.904724 
	C58.702011,260.121765 58.145069,260.338776 57.588127,260.555817 
	C56.061901,258.312500 53.445168,256.163971 53.240147,253.805771 
	C52.833652,249.130081 56.902985,248.677811 60.779900,248.833160 
	C62.098576,239.247009 63.362526,230.058731 64.852013,219.230927 
	C58.938713,220.286240 53.643616,220.546448 48.870731,222.260651 
	C43.218525,224.290665 42.083950,229.760056 44.121284,236.682770 
	C44.752155,238.826431 44.590065,242.145798 43.307953,243.715500 
	C40.571903,247.065247 36.143547,245.912872 33.948059,241.900513 
	C28.936483,232.741608 31.328369,220.967453 40.045883,215.227524 
	C52.450962,207.059540 65.919090,207.580582 79.372551,212.138489 
	C84.023277,213.714127 84.203491,219.033340 80.213242,221.994629 
	C79.468277,222.547485 78.307762,223.143173 78.195862,223.853973 
	C76.937378,231.848465 75.846527,239.869370 74.649536,248.314316 
	C82.237206,247.806946 88.365128,245.137756 92.049568,239.631149 
	C96.898361,232.384308 100.805428,224.448502 104.528938,216.532135 
	C106.428726,212.493057 108.546326,209.725815 113.234787,209.716568 
	C117.972610,209.707230 120.102890,212.211670 118.702896,216.815887 
	C113.698807,233.273193 104.780731,246.601059 88.362938,253.716904 
	C87.906944,253.914551 87.466881,254.148956 85.953278,254.883789 
	C95.717560,258.206329 97.409950,267.209717 101.760666,274.238312 
	C105.503204,280.284393 109.636711,282.380463 114.355698,279.836609 
	C116.163757,278.861969 117.813583,276.419373 118.288124,274.358459 
	C119.924828,267.250336 120.727798,259.945587 122.473747,252.870071 
	C123.023178,250.643478 125.190674,248.235580 127.266068,247.146988 
	C128.973831,246.251221 131.897781,246.654236 133.760803,247.557800 
	C134.546768,247.938965 134.300461,251.135574 133.992249,252.962814 
	C132.858643,259.683716 131.364059,266.345886 130.334732,273.080505 
	C130.099686,274.618378 131.181534,276.357544 131.657288,278.004059 
	C133.102676,277.083221 135.267746,276.495087 135.873047,275.185852 
	C139.068680,268.273987 141.884674,261.186005 144.800446,254.145874 
	C145.496292,252.465729 145.589478,249.911575 146.802780,249.203217 
	C149.155365,247.829727 152.106323,247.481201 154.809326,246.707962 
	C155.259964,248.734634 156.346573,250.860855 156.047653,252.770187 
	C154.942245,259.830597 153.202454,266.791565 152.090134,273.851196 
	C151.731033,276.130341 152.451660,278.629028 153.056915,280.927582 
	C153.112106,281.137115 156.246597,281.092773 157.416962,280.338013 
	C160.007416,278.667480 162.647797,276.937988 162.059006,272.890991 
	C160.108994,259.488159 161.718124,246.190369 165.222076,233.319931 
	C167.595840,224.600845 171.357758,216.147003 175.430771,208.042923 
	C178.141495,202.649384 183.158951,199.341278 190.236511,200.384521 
M175.618011,250.633926 
	C178.621704,244.525742 182.188446,238.618469 184.461105,232.249420 
	C186.487778,226.569839 187.272446,220.407684 188.163666,214.393066 
	C188.359360,213.072296 186.688934,211.475006 185.877869,210.005051 
	C184.750778,211.088943 183.117325,211.965561 182.575562,213.289047 
	C177.623810,225.386139 175.154953,238.008270 174.853104,251.105957 
	C174.853104,251.105957 174.723907,251.369858 174.723907,251.369858 
	C174.723907,251.369858 175.047012,251.019363 175.618011,250.633926 
M268.661987,270.081543 
	C269.544006,265.318665 270.426025,260.555817 271.368439,255.466797 
	C261.500000,257.559082 254.029663,270.228058 256.701996,278.968903 
	C257.892609,282.863251 261.854340,284.069366 264.225952,280.771393 
	C266.266418,277.933899 267.069611,274.206604 268.661987,270.081543 
M178.307053,281.482758 
	C182.050156,282.950104 184.983292,281.476868 186.741959,278.350952 
	C187.820251,276.434387 188.953384,272.761566 188.045868,271.819489 
	C183.770294,267.381012 182.548370,262.220337 183.003220,256.196869 
	C177.907089,256.786041 175.546280,259.970917 174.660233,263.972992 
	C173.336685,269.951080 172.210220,276.147156 178.307053,281.482758 
z"/>
<path fill="#7A446C" opacity="1.000000" stroke="none" 
	d="
M311.284668,220.345856 
	C316.106323,214.791992 321.484192,210.752518 328.522247,209.375534 
	C337.475281,207.623840 342.813171,211.812958 342.991547,220.954208 
	C343.067505,224.847382 342.643921,228.750290 343.206543,233.061615 
	C343.992432,231.594315 344.793060,230.134705 345.561707,228.658417 
	C349.555939,220.986877 354.333923,214.061417 362.820892,210.728683 
	C378.316010,204.643936 390.196991,213.814728 387.523895,230.180984 
	C385.621124,241.831055 382.793182,253.327606 380.565094,264.928589 
	C379.974548,268.003326 379.775116,271.225555 379.930481,274.353516 
	C380.140686,278.586700 383.157745,281.035522 387.227600,280.841492 
	C391.910461,280.618256 394.496429,277.912567 395.087891,273.748474 
	C396.066803,266.856750 397.441528,260.016663 398.825134,253.190460 
	C399.143433,251.619888 399.817017,249.344727 400.947174,248.869980 
	C403.659790,247.730560 406.740509,247.467575 409.672699,246.850906 
	C409.962708,248.961197 410.748688,251.145950 410.445343,253.167175 
	C409.681274,258.257874 408.266083,263.248474 407.427399,268.331238 
	C406.923676,271.383942 407.012207,274.534363 406.834595,277.640869 
	C407.315613,277.963318 407.796661,278.285767 408.277679,278.608215 
	C409.913818,277.137115 412.243134,275.975830 413.063507,274.140137 
	C416.240692,267.030975 418.697937,259.597076 421.946655,252.524551 
	C423.038116,250.148392 425.351562,247.553619 427.700409,246.707550 
	C431.791931,245.233765 433.649261,247.172501 432.891876,251.603806 
	C431.630859,258.981689 429.923157,266.282288 428.594666,273.649933 
	C428.070740,276.555634 426.347504,280.312561 430.973755,281.463837 
	C433.850342,282.179657 436.854919,278.045929 437.406830,274.045471 
	C438.404358,266.814819 439.449768,259.567169 441.063019,252.460022 
	C441.528839,250.407761 443.684082,248.138245 445.651550,247.203979 
	C447.459564,246.345444 450.244965,246.687332 452.201782,247.481262 
	C452.856476,247.746887 452.544495,251.083054 452.219452,252.935852 
	C451.487793,257.106506 450.471771,261.227264 450.253235,265.533051 
	C452.823853,261.720886 454.921722,257.440369 458.101044,254.231201 
	C461.143616,251.160019 465.022583,248.411087 469.052216,246.946640 
	C474.639862,244.916031 478.150665,248.343185 477.467651,254.232147 
	C477.142151,257.038391 476.344391,259.797821 476.136536,262.606293 
	C476.037903,263.938751 476.421356,265.945068 477.317078,266.533112 
	C478.209137,267.118744 480.111450,266.551361 481.394165,266.043396 
	C482.585907,265.571472 483.463959,264.356384 484.626953,263.750214 
	C485.998932,263.035095 487.528656,262.622650 488.989990,262.078979 
	C489.587860,263.693665 490.878113,265.408478 490.661560,266.905365 
	C489.804718,272.828644 484.958984,275.255096 480.161011,277.186707 
	C475.680328,278.990631 470.676636,279.379974 467.095428,275.593323 
	C465.277832,273.671478 464.805817,270.312012 464.167816,267.502014 
	C463.790314,265.839325 464.275757,263.980682 463.212372,261.499481 
	C461.816681,262.875122 459.874817,264.003906 459.121826,265.670013 
	C456.190674,272.155670 453.806519,278.889160 450.856842,285.365601 
	C449.713409,287.876221 448.022491,291.091492 445.821045,291.889587 
	C443.748932,292.640778 440.676514,290.632538 436.821198,289.469330 
	C424.876404,295.471619 420.696686,294.097046 416.646271,281.546021 
	C409.858673,293.773926 404.715881,295.546478 398.157166,289.051270 
	C391.902649,290.225006 386.310059,292.246948 380.778839,292.091064 
	C371.845215,291.839294 365.570648,285.328644 366.095734,276.407898 
	C366.687927,266.347107 368.859558,256.371338 370.492859,246.382935 
	C371.351562,241.131454 372.795807,235.967545 373.496704,230.700363 
	C374.518005,223.025360 369.146027,218.934555 362.341370,222.822418 
	C357.932159,225.341614 353.855133,229.411438 351.135254,233.734039 
	C343.384613,246.051727 340.416290,260.136200 337.997467,274.298401 
	C337.353119,278.071014 336.889801,281.877228 336.154022,285.630920 
	C335.017975,291.426697 333.134064,292.912750 328.292999,292.435242 
	C322.932312,291.906525 322.359894,288.028748 322.808228,284.062805 
	C323.835632,274.974457 325.331207,265.940186 326.520721,256.868744 
	C327.797272,247.133072 329.062012,237.392044 330.038422,227.624023 
	C330.228546,225.722031 329.524353,222.385345 328.433563,222.005554 
	C326.651031,221.384918 323.779449,222.056320 322.143158,223.247986 
	C319.094299,225.468292 316.713806,228.582977 313.830627,231.064590 
	C312.487915,232.220322 310.620422,232.766373 308.990784,233.588806 
	C308.323792,231.531387 306.812195,229.296539 307.197937,227.460266 
	C307.710693,225.019424 309.702393,222.889282 311.284668,220.345856 
z"/>
<path fill="#7C476F" opacity="1.000000" stroke="none" 
	d="
M128.515762,238.624268 
	C127.539413,236.718216 126.447578,235.100128 126.279060,233.391037 
	C125.790627,228.437332 129.055573,224.799011 133.719009,224.662979 
	C138.164932,224.533279 140.797134,227.224487 140.736969,231.838226 
	C140.669296,237.027130 137.149231,240.379837 132.106888,239.914536 
	C130.989334,239.811386 129.915833,239.231186 128.515762,238.624268 
z"/>
<path fill="#7A446C" opacity="1.000000" stroke="none" 
	d="
M157.709412,225.345779 
	C158.925613,226.687485 160.687744,227.974106 160.540237,228.980972 
	C160.066422,232.215500 159.749039,236.228668 157.699890,238.231033 
	C156.136703,239.758545 150.898468,239.903290 149.351685,238.459656 
	C147.472900,236.706131 146.910782,232.521637 147.313446,229.600342 
	C147.825089,225.888443 151.224930,224.535599 154.933578,224.720276 
	C155.754730,224.761169 156.565536,225.009705 157.709412,225.345779 
z"/>
</svg>