<svg version="1.1" id="Layer_1" xmlns="http://www.w3.org/2000/svg" xmlns:xlink="http://www.w3.org/1999/xlink" x="0px" y="0px"
	 width="100%" viewBox="0 0 500 500" enable-background="new 0 0 500 500" xml:space="preserve">

<path fill="#72DCC0" opacity="1.000000" stroke="none" 
	d="
M191.698120,200.937012 
	C199.078766,205.889938 199.106430,213.239883 197.404343,219.988770 
	C195.569122,227.265533 191.891525,234.088272 188.882172,241.050491 
	C188.174301,242.688156 186.922501,244.090683 185.617661,246.058853 
	C194.023651,248.478424 198.705460,253.902847 200.211990,262.140747 
	C200.336548,262.821808 201.720764,263.905853 202.202698,263.759430 
	C203.285553,263.430359 204.688904,262.635437 205.034424,261.690887 
	C205.999756,259.052094 206.153229,256.091064 207.274490,253.541992 
	C208.286636,251.240997 209.745193,248.625305 211.765213,247.430328 
	C213.585831,246.353333 216.434555,247.014297 218.829819,246.908737 
	C218.916626,248.935501 219.360077,251.025436 219.014740,252.975677 
	C218.331635,256.833466 217.212433,260.614014 217.193680,264.957062 
	C217.902557,263.893677 218.638672,262.847290 219.315765,261.763977 
	C222.864059,256.086884 226.434464,250.428238 232.946411,247.617294 
	C240.737625,244.254150 245.020355,247.392578 244.003769,255.735321 
	C243.762924,257.711761 243.141754,259.661713 243.085678,261.634918 
	C243.036621,263.361816 243.535629,265.104279 243.860550,267.299500 
	C247.869614,261.910034 250.745987,256.775665 254.840637,252.942810 
	C258.072205,249.917862 262.666168,248.141815 266.919678,246.494278 
	C269.389374,245.537674 272.500946,245.177536 274.213501,248.762131 
	C274.543030,249.451950 276.735229,249.316757 278.079376,249.444473 
	C281.697266,249.788254 284.127319,250.862701 283.286469,255.370300 
	C281.977234,262.388672 280.915314,269.459503 280.009674,276.541473 
	C279.829926,277.947144 280.633148,280.641907 281.319244,280.758179 
	C282.854736,281.018341 284.969604,280.471252 286.187531,279.458282 
	C288.861084,277.234558 291.024719,274.408051 293.606598,272.058502 
	C294.573212,271.178894 296.213928,270.403015 297.376190,270.598297 
	C298.158081,270.729675 298.981720,272.585175 299.200500,273.776947 
	C300.680908,281.841156 285.413727,295.030884 277.793091,292.022156 
	C274.916473,290.886475 272.643402,288.222076 269.287750,284.306946 
	C268.358673,285.849182 267.718445,287.700623 266.453003,288.882782 
	C258.971863,295.871490 247.781448,292.804993 245.145172,282.921570 
	C244.248184,279.558807 243.228210,277.899963 239.324020,277.925079 
	C234.049774,277.959076 231.192749,274.613739 230.980240,269.333405 
	C230.887939,267.040161 230.964722,264.740143 230.964722,262.443207 
	C230.556198,262.166473 230.147659,261.889709 229.739136,261.612976 
	C228.131943,263.429352 226.000351,265.001678 225.019257,267.109467 
	C222.431412,272.669159 220.323303,278.453522 218.071060,284.166931 
	C217.585510,285.398712 217.655640,287.043579 216.843246,287.912048 
	C215.157761,289.713959 212.863159,292.557678 211.166229,292.334351 
	C208.984390,292.047241 206.100784,289.512970 205.382187,287.332733 
	C204.061951,283.327209 204.103241,278.872894 203.392700,273.111267 
	C201.484665,274.908081 199.937378,275.958649 198.948471,277.393951 
	C197.547348,279.427551 196.834900,281.956238 195.346573,283.905701 
	C187.051437,294.771149 177.150574,295.410187 166.390442,286.359619 
	C161.154663,288.542877 156.352570,291.244293 151.198257,292.500275 
	C145.920959,293.786255 142.954620,290.715302 140.448120,283.372253 
	C137.475235,286.195251 134.833633,289.672760 131.357132,291.759186 
	C127.024170,294.359619 123.551392,291.129059 121.406540,289.001892 
	C115.519920,290.343811 110.426201,292.438599 105.326035,292.454376 
	C97.148598,292.479767 92.180191,286.863739 88.585526,280.028412 
	C85.797935,274.727753 83.249611,269.284485 80.156898,264.169464 
	C78.935555,262.149445 76.527298,260.847076 73.512367,258.217377 
	C72.423553,263.839508 71.687256,267.822113 70.877747,271.789795 
	C67.524529,288.224976 55.764294,296.168304 40.811810,291.866577 
	C34.391438,290.019501 29.387794,286.133728 27.882446,279.294891 
	C27.403551,277.119263 28.063633,274.329956 29.096354,272.269409 
	C30.654366,269.160797 33.778530,269.256866 35.847042,272.147003 
	C37.682549,274.711578 39.091785,277.633575 41.183926,279.951172 
	C45.449409,284.676331 51.696186,284.176666 54.298950,278.388336 
	C56.837029,272.743805 58.011299,266.486053 59.877293,260.183502 
	C55.653648,258.862732 51.611843,257.545593 53.287231,253.159042 
	C54.165440,250.859726 57.315014,249.427917 59.438831,247.604340 
	C59.875195,247.922256 60.311562,248.240158 60.747925,248.558075 
	C61.989094,239.285583 63.230263,230.013092 64.676285,219.210190 
	C58.653362,220.301147 53.664154,220.593826 49.127449,222.180405 
	C43.385010,224.188660 42.147778,229.713333 44.311951,236.976120 
	C44.908070,238.976624 44.705219,242.063385 43.509529,243.579834 
	C40.686340,247.160461 36.569202,246.315567 34.104328,242.227890 
	C28.830021,233.481110 31.082123,221.296066 39.594837,215.445389 
	C52.073994,206.868637 65.687363,207.580444 79.314575,212.015045 
	C83.910095,213.510529 84.166534,218.835663 80.314049,221.916595 
	C79.570000,222.511627 78.381485,223.109238 78.264282,223.843872 
	C77.015427,231.671570 75.941353,239.527161 74.744125,247.900528 
	C81.248543,248.212921 85.860451,245.499588 89.940086,241.800491 
	C97.201874,235.216095 101.015083,226.533417 104.155472,217.499542 
	C105.393639,213.937744 106.857040,210.763290 111.147034,209.842712 
	C116.822685,208.624771 120.312859,211.730835 118.631531,217.191788 
	C113.796616,232.895660 105.422539,245.870819 89.877052,253.039856 
	C88.989990,253.448929 88.147469,253.954590 86.444580,254.863434 
	C96.038109,258.488953 97.244476,267.910400 102.223991,274.550385 
	C104.083328,277.029755 106.890869,279.370697 109.757980,280.387085 
	C114.033371,281.902649 117.577263,278.603760 118.291542,274.128937 
	C119.441238,266.926392 120.730415,259.724152 122.494370,252.654968 
	C123.022629,250.537933 124.981544,248.197754 126.923775,247.185822 
	C128.673035,246.274445 131.689957,246.356293 133.385834,247.328781 
	C134.384155,247.901230 134.308914,251.127655 134.005096,253.047852 
	C132.941360,259.770721 131.424591,266.423309 130.425934,273.153961 
	C130.207474,274.626312 131.418167,276.310699 131.970688,277.897461 
	C133.278320,277.039734 135.249283,276.477661 135.784851,275.275879 
	C139.019730,268.017059 142.092682,260.673950 144.866592,253.227417 
	C146.101501,249.912354 147.340851,247.032700 151.195862,246.325516 
	C155.218506,245.587585 157.256653,247.541733 156.487198,251.611374 
	C155.221359,258.306366 153.813507,264.974487 152.462997,271.653412 
	C152.331192,272.305328 152.015976,272.967651 152.069717,273.601074 
	C152.273178,275.999207 152.593567,278.387421 152.870224,280.779327 
	C154.427078,280.590759 156.221771,280.830780 157.492157,280.125916 
	C160.291321,278.572845 162.518127,276.627686 162.032104,272.649231 
	C159.677124,253.372025 163.200912,234.854645 170.392944,217.051834 
	C172.336273,212.241425 175.620163,207.779816 179.053635,203.821594 
	C182.117889,200.289001 186.530960,198.911438 191.698120,200.937012 
M175.559280,250.600388 
	C181.210464,239.722092 187.751205,229.144882 188.451004,216.456009 
	C188.563812,214.410538 187.115067,212.278946 186.388184,210.187180 
	C184.870911,211.647888 182.622742,212.834259 181.954773,214.613770 
	C177.559143,226.324081 175.010834,238.443375 174.784058,251.101959 
	C174.849869,251.056885 174.915695,251.011826 175.559280,250.600388 
M174.367096,264.432220 
	C174.695114,269.134613 174.277298,274.056183 175.575317,278.473511 
	C176.716400,282.356689 180.851303,282.994354 184.233795,280.936615 
	C187.349213,279.041351 189.986954,273.517944 188.184189,271.822418 
	C183.671280,267.577911 182.722473,262.255310 182.858231,256.197998 
	C178.058334,256.918518 176.104279,260.000763 174.367096,264.432220 
M268.722595,270.095856 
	C269.531647,265.488983 270.340729,260.882141 271.183014,256.086029 
	C261.579742,256.830536 252.913467,272.387268 257.016785,279.980927 
	C258.766388,283.218781 262.469177,283.721497 264.645355,280.430573 
	C266.497223,277.630066 267.238556,274.095123 268.722595,270.095856 
z"/>
<path fill="#72DDC0" opacity="1.000000" stroke="none" 
	d="
M396.007996,264.038452 
	C397.037018,259.745880 397.710419,255.761124 399.137238,252.067429 
	C399.897888,250.098267 401.660553,247.961273 403.520874,247.128601 
	C405.365112,246.303146 408.204865,246.412094 410.005737,247.313934 
	C410.930786,247.777176 410.977875,250.937149 410.667511,252.749313 
	C409.686340,258.478149 408.192413,264.119507 407.222137,269.849762 
	C406.794159,272.377350 407.149994,275.037598 407.149994,277.637634 
	C407.598724,277.933899 408.047455,278.230194 408.496185,278.526489 
	C410.091003,276.966644 412.322174,275.690552 413.166840,273.796265 
	C416.272034,266.831940 418.792603,259.608826 421.810577,252.602615 
	C422.728882,250.470688 424.134796,247.968597 426.025208,246.951202 
	C430.565430,244.507721 433.671478,246.750977 432.877045,251.805267 
	C431.690887,259.351837 429.979797,266.814789 428.565796,274.327209 
	C428.063385,276.996643 426.629578,280.235229 430.880127,281.175659 
	C433.801971,281.822144 436.703979,278.526184 437.213654,274.923706 
	C438.258301,267.539978 439.279694,260.134277 440.857910,252.856339 
	C441.319153,250.729340 443.270294,248.365280 445.197418,247.281845 
	C446.945221,246.299225 449.911560,246.238983 451.707092,247.097351 
	C452.642670,247.544586 452.618805,250.914948 452.313202,252.852158 
	C451.672424,256.914246 450.558716,260.901672 450.428772,265.240479 
	C452.702911,261.763550 454.463867,257.752319 457.383881,254.947845 
	C460.867981,251.601593 465.038086,248.535858 469.473389,246.729019 
	C474.454834,244.699692 478.319214,248.481644 477.699402,253.938385 
	C477.362701,256.902863 476.459534,259.803284 476.127472,262.767944 
	C475.995056,263.950439 476.372162,265.926453 477.126862,266.295837 
	C478.205658,266.823822 479.934143,266.461853 481.217621,266.007050 
	C482.424713,265.579346 483.328247,264.343079 484.521423,263.815765 
	C486.058411,263.136536 487.750854,262.809082 489.376343,262.330139 
	C489.774811,264.323853 490.835876,266.459717 490.444458,268.283936 
	C489.372742,273.278320 480.608582,278.581787 474.509338,278.405121 
	C467.450317,278.200592 463.971558,274.489044 464.057220,267.268097 
	C464.076385,265.652954 464.060059,264.037415 464.060059,260.903564 
	C461.769043,263.076416 459.929474,264.084320 459.229248,265.613831 
	C456.332336,271.941650 453.367920,278.292023 451.203094,284.888367 
	C448.329956,293.643219 445.052032,294.918793 438.313019,289.037231 
	C423.427429,295.158142 420.055206,294.050690 416.947571,282.560303 
	C414.246246,285.456635 411.751129,289.185699 408.316925,291.551544 
	C403.864166,294.619080 400.238800,291.336945 398.374969,289.477875 
	C391.292908,290.497803 385.291962,292.472168 379.524841,291.935150 
	C370.645203,291.108307 365.408234,284.737213 366.090393,275.713745 
	C366.862976,265.494659 369.024780,255.377899 370.647278,245.226990 
	C371.459778,240.143646 372.811523,235.114380 373.212982,230.005157 
	C373.785095,222.723724 368.696350,219.048889 362.459991,222.930939 
	C357.614563,225.947159 353.227417,230.622437 350.252441,235.538239 
	C342.909363,247.671738 340.222992,261.500366 337.934021,275.338501 
	C337.283142,279.273376 336.649323,283.211761 335.934692,287.135254 
	C335.227020,291.020630 332.793304,292.951385 328.889435,292.682983 
	C324.983704,292.414429 322.472656,290.164703 322.796844,286.223816 
	C323.448608,278.300232 324.514343,270.408142 325.512085,262.516083 
	C326.991394,250.814636 328.674072,239.137115 329.972748,227.416443 
	C330.176910,225.573914 329.320587,222.532486 328.037445,221.896881 
	C326.626129,221.197754 323.749146,222.104248 322.231689,223.258820 
	C319.228790,225.543655 316.834473,228.610855 313.961151,231.091156 
	C312.598267,232.267609 310.712372,232.838196 309.063416,233.683258 
	C308.355713,231.808548 306.496796,229.231918 307.138275,228.179825 
	C310.014343,223.462769 312.967316,218.413147 317.124268,214.971115 
	C320.748108,211.970520 325.872559,210.016403 330.595764,209.280655 
	C338.574310,208.037796 342.754211,212.277237 342.991852,220.395340 
	C343.105835,224.289230 343.011475,228.189224 343.011475,231.677734 
	C346.818665,226.511108 350.356415,220.912964 354.702759,216.035339 
	C359.076324,211.127121 365.058380,208.975525 371.743042,209.019623 
	C381.695129,209.085266 388.272888,214.794250 387.709991,224.760239 
	C387.198517,233.814636 384.883545,242.766464 383.375916,251.765564 
	C382.197357,258.800446 380.696503,265.804382 379.987885,272.886963 
	C379.505188,277.711517 382.808655,280.937134 386.891449,280.831085 
	C391.888458,280.701294 394.782196,277.793335 395.049072,272.885345 
	C395.202118,270.071045 395.650391,267.272797 396.007996,264.038452 
z"/>
<path fill="#74DDC1" opacity="1.000000" stroke="none" 
	d="
M135.447815,224.587494 
	C137.480927,226.921768 140.341171,229.058304 140.510666,231.390396 
	C140.689438,233.850281 138.858307,237.097717 136.898727,238.916901 
	C134.154312,241.464722 129.021637,240.141830 127.207428,237.206741 
	C124.975235,233.595428 126.210793,227.718262 129.886444,225.744003 
	C131.409241,224.926071 133.344147,224.875397 135.447815,224.587494 
z"/>
<path fill="#72DDC0" opacity="1.000000" stroke="none" 
	d="
M158.348633,225.732941 
	C162.459106,231.013855 161.653595,237.518387 156.537308,239.215057 
	C154.231308,239.979767 150.133942,239.707458 148.882080,238.208267 
	C147.225830,236.224838 146.426193,232.122437 147.365158,229.772583 
	C148.293594,227.449051 151.726013,225.955200 154.311020,224.563675 
	C155.136551,224.119263 156.763885,225.164322 158.348633,225.732941 
z"/>
</svg>